<svg width="346" height="184" viewBox="0 0 346 184" fill="none" xmlns="http://www.w3.org/2000/svg">
<g filter="url(#filter0_d_0_304)">
<rect x="4" width="338" height="176" rx="6" fill="white"/>
<circle cx="48" cy="44" r="20" fill="#F7CC47"/>
<rect x="28" y="78" width="75" height="14" rx="2" fill="#F5DED1"/>
<rect x="28" y="100" width="126" height="6" rx="3" fill="#F5DED1"/>
<path fill-rule="evenodd" clip-rule="evenodd" d="M245.5 76.6701C238.456 77.8968 231.32 78.5195 224.169 78.5313V78.5305C223.428 78.5419 223.211 79.7467 223.989 79.8639C232.225 80.974 240.593 80.6291 248.709 78.8451C263.131 75.8586 276.693 69.6665 288.388 60.729C294.279 56.2616 299.639 51.1352 304.362 45.4502C306.869 42.3734 309.184 39.1495 311.295 35.7971L311.311 35.7192C311.728 33.641 312.151 31.5659 312.588 29.4933C312.873 29.4539 313.158 29.4172 313.444 29.383C314.916 29.212 315.002 26.9878 313.444 27.021C313.334 27.0227 313.224 27.0251 313.114 27.0279C313.213 26.5675 313.313 26.1072 313.415 25.647L316.292 26.857C314.783 29.9246 313.115 32.9086 311.295 35.7971L310.361 40.4845C310.504 40.2424 310.766 40.0874 311.057 40.0874C311.413 40.0874 311.727 40.3194 311.831 40.659C312.125 41.8426 312.29 43.0179 312.458 44.2071C312.514 44.6076 312.571 45.0098 312.633 45.4143L309.41 45.8509C309.436 46.5523 309.912 47.1829 310.621 47.3781C311.476 47.6133 312.364 47.1326 312.633 46.2893C313.112 44.6398 313.463 42.9561 313.685 41.253L314.622 36.4075C315.265 33.1053 315.874 29.7962 316.451 26.4804C316.642 25.7229 316.256 24.9387 315.539 24.6269C314.815 24.3166 313.973 24.5922 313.574 25.2699C313.301 25.8635 313.02 26.4536 312.733 27.0401C310.657 27.1183 308.593 27.3933 306.568 27.8615C305.401 28.1458 304.254 28.5096 303.136 28.9504C302.146 29.2017 301.251 29.7345 300.557 30.4842C300.399 30.7565 300.376 31.0866 300.495 31.3781C300.614 31.6697 300.861 31.8898 301.164 31.9742C302.148 32.0141 303.128 31.8237 304.026 31.4182C304.965 31.1309 305.917 30.8863 306.871 30.6414C306.95 30.621 307.03 30.6006 307.109 30.5802C308.519 30.2134 309.945 29.9115 311.382 29.6755C308.346 35.3437 304.652 40.6419 300.371 45.4588C290.891 56.2339 279.132 64.7733 265.943 70.4605C259.383 73.2857 252.525 75.3685 245.5 76.6701ZM309.896 42.5242C310.016 41.9352 310.152 41.3494 310.304 40.7673L310.361 40.4845C310.329 40.5386 310.303 40.597 310.284 40.659C310.126 41.2819 310.003 41.9026 309.896 42.5242ZM309.896 42.5242C309.672 43.6244 309.503 44.7355 309.392 45.8534L309.41 45.8509C309.405 45.7073 309.419 45.5607 309.453 45.4143C309.515 45.0215 309.572 44.631 309.63 44.242C309.714 43.667 309.798 43.0952 309.896 42.5242Z" fill="#EF6D58"/>
<rect x="28" y="144" width="289" height="6" rx="3" fill="#F4E4FF"/>
<rect x="28" y="144" width="113" height="6" rx="3" fill="#B550F8"/>
</g>
<defs>
<filter id="filter0_d_0_304" x="0" y="0" width="346" height="184" filterUnits="userSpaceOnUse" color-interpolation-filters="sRGB">
<feFlood flood-opacity="0" result="BackgroundImageFix"/>
<feColorMatrix in="SourceAlpha" type="matrix" values="0 0 0 0 0 0 0 0 0 0 0 0 0 0 0 0 0 0 127 0" result="hardAlpha"/>
<feOffset dy="4"/>
<feGaussianBlur stdDeviation="2"/>
<feComposite in2="hardAlpha" operator="out"/>
<feColorMatrix type="matrix" values="0 0 0 0 0 0 0 0 0 0 0 0 0 0 0 0 0 0 0.25 0"/>
<feBlend mode="normal" in2="BackgroundImageFix" result="effect1_dropShadow_0_304"/>
<feBlend mode="normal" in="SourceGraphic" in2="effect1_dropShadow_0_304" result="shape"/>
</filter>
</defs>
</svg>
